<?xml version="1.0" standalone="no"?>
<!DOCTYPE svg PUBLIC "-//W3C//DTD SVG 20010904//EN"
 "http://www.w3.org/TR/2001/REC-SVG-20010904/DTD/svg10.dtd">
<svg version="1.0" xmlns="http://www.w3.org/2000/svg"
 width="256.000000pt" height="256.000000pt" viewBox="0 0 256.000000 256.000000"
 preserveAspectRatio="xMidYMid meet">
<metadata>
Created by potrace 1.11, written by Peter Selinger 2001-2013
</metadata>
<g transform="translate(0.000000,256.000000) scale(0.100000,-0.100000)"
fill="#000000" stroke="none">
<path d="M1042 2540 c-125 -33 -217 -85 -308 -175 -142 -139 -172 -226 -174
-504 -1 -159 -3 -183 -22 -222 -16 -35 -19 -53 -14 -98 4 -31 13 -66 21 -78
13 -19 15 -89 15 -427 l0 -405 -32 -38 c-18 -21 -35 -40 -39 -43 -13 -12 -81
-132 -103 -181 -47 -108 -80 -314 -57 -349 15 -22 1876 -23 1899 -1 24 25 6
180 -36 301 -35 101 -110 227 -166 281 l-26 24 0 406 c0 380 1 408 19 445 24
47 22 140 -2 177 -13 20 -16 55 -18 167 -1 156 -15 232 -56 317 -29 59 -139
184 -196 223 -29 20 -33 28 -27 49 4 14 6 48 4 76 -4 61 -23 80 -74 68 -38 -8
-188 -8 -400 0 -112 5 -147 2 -208 -13z"/>
</g>
</svg>
